# xmcd
#
# Track frame offsets: 
#        150
#        10955
#        24960
#        39820
#        51203
#        58135
#        67065
#        75015
#        84078
#        93260
#
# Disc length: 1315 seconds
#
# Revision: 0
# Processed by: cddbd v1.5.2PL0 Copyright (c) Steve Scherf et al.
# Submitted via: ExactAudioCopy v0.95b4
#
DISCID=6505210a
DTITLE=George Jones - Pure Country
DYEAR=1996
DGENRE=Classic Country
TTITLE0=Don't You Ever Get Tired of Hurting Me
TTITLE1=Open Pity Mind
TTITLE2=On the Banks of the Ponchertrain
TTITLE3=A House Without Love Is Not a Home
TTITLE4=Ways of the World, Wants of a Woman (Big Harlem Taylor)
TTITLE5=Please Don't Let That Woman Get Me
TTITLE6=Yes, I Know Why
TTITLE7=Jonesy
TTITLE8=Old Brush Arbor
TTITLE9=Liberty
EXTD=
EXTT0=
EXTT1=
EXTT2=
EXTT3=
EXTT4=
EXTT5=
EXTT6=
EXTT7=
EXTT8=
EXTT9=
PLAYORDER=
